<svg width="150" height="150" viewBox="0 0 150 150" fill="none" xmlns="http://www.w3.org/2000/svg">
<path d="M140 103.889V46.111C139.997 43.578 139.329 41.0902 138.061 38.8972C136.793 36.7042 134.971 34.8831 132.778 33.6166L82.2222 4.72767C80.0264 3.4599 77.5355 2.79248 75 2.79248C72.4645 2.79248 69.9736 3.4599 67.7778 4.72767L17.2222 33.6166C15.0286 34.8831 13.2065 36.7042 11.9389 38.8972C10.6713 41.0902 10.0026 43.578 10 46.111V103.889C10.0026 106.422 10.6713 108.91 11.9389 111.103C13.2065 113.296 15.0286 115.117 17.2222 116.383L67.7778 145.272C69.9736 146.54 72.4645 147.207 75 147.207C77.5355 147.207 80.0264 146.54 82.2222 145.272L132.778 116.383C134.971 115.117 136.793 113.296 138.061 111.103C139.329 108.91 139.997 106.422 140 103.889Z" stroke="black" stroke-width="2" stroke-linecap="round" stroke-linejoin="round"/>
</svg>
