<svg width="50" height="50" viewBox="0 0 50 50" fill="none" xmlns="http://www.w3.org/2000/svg">
<path d="M35.4165 4.16677H40.979C42.1581 4.14592 43.3038 4.55872 44.1986 5.32681C45.0934 6.0949 45.6751 7.16481 45.8332 8.33344V22.9168C45.6751 24.0854 45.0934 25.1553 44.1986 25.9234C43.3038 26.6915 42.1581 27.1043 40.979 27.0834H35.4165M20.8332 31.2501V39.5834C20.8332 41.241 21.4916 42.8308 22.6637 44.0029C23.8358 45.175 25.4255 45.8334 27.0832 45.8334L35.4165 27.0834V4.16677H11.9165C10.9116 4.15541 9.93653 4.50759 9.17085 5.15842C8.40517 5.80925 7.90049 6.71488 7.74982 7.70844L4.87482 26.4584C4.78418 27.0556 4.82446 27.6654 4.99286 28.2454C5.16127 28.8255 5.45377 29.362 5.85011 29.8178C6.24645 30.2736 6.73715 30.6377 7.28821 30.8851C7.83927 31.1324 8.43751 31.2569 9.04149 31.2501H20.8332Z" stroke="black" stroke-width="2" stroke-linecap="round" stroke-linejoin="round"/>
</svg>
