<svg width="51" height="50" viewBox="0 0 51 50" fill="none" xmlns="http://www.w3.org/2000/svg">
<path d="M14.6759 45.8332H8.42594C7.32088 45.8332 6.26107 45.3942 5.47967 44.6128C4.69826 43.8314 4.25928 42.7716 4.25928 41.6665V27.0832C4.25928 25.9781 4.69826 24.9183 5.47967 24.1369C6.26107 23.3555 7.32088 22.9165 8.42594 22.9165H14.6759M29.2593 18.7498V10.4165C29.2593 8.7589 28.6008 7.16919 27.4287 5.99709C26.2566 4.82498 24.6669 4.1665 23.0093 4.1665L14.6759 22.9165V45.8332H38.1759C39.1808 45.8445 40.1559 45.4923 40.9216 44.8415C41.6873 44.1907 42.1919 43.2851 42.3426 42.2915L45.2176 23.5415C45.3082 22.9443 45.268 22.3346 45.0996 21.7545C44.9312 21.1745 44.6387 20.638 44.2423 20.1822C43.846 19.7264 43.3553 19.3622 42.8042 19.1149C42.2532 18.8676 41.6549 18.743 41.0509 18.7498H29.2593Z" stroke="black" stroke-width="2" stroke-linecap="round" stroke-linejoin="round"/>
</svg>
