<svg width="256" height="48" viewBox="0 0 256 48" fill="none" xmlns="http://www.w3.org/2000/svg">
<path d="M44.7999 33.2444V14.7555C44.7991 13.9449 44.5851 13.1488 44.1795 12.4471C43.7739 11.7453 43.1908 11.1625 42.4888 10.7573L26.3111 1.51281C25.6084 1.10713 24.8113 0.893555 23.9999 0.893555C23.1886 0.893555 22.3915 1.10713 21.6888 1.51281L5.51106 10.7573C4.80909 11.1625 4.22604 11.7453 3.8204 12.4471C3.41475 13.1488 3.20078 13.9449 3.19995 14.7555V33.2444C3.20078 34.0549 3.41475 34.851 3.8204 35.5528C4.22604 36.2546 4.80909 36.8373 5.51106 37.2426L21.6888 46.487C22.3915 46.8927 23.1886 47.1063 23.9999 47.1063C24.8113 47.1063 25.6084 46.8927 26.3111 46.487L42.4888 37.2426C43.1908 36.8373 43.7739 36.2546 44.1795 35.5528C44.5851 34.851 44.7991 34.0549 44.7999 33.2444Z" stroke="black" stroke-width="0.5" stroke-linecap="round" stroke-linejoin="round"/>
<path d="M18.6391 19.7C18.7591 18.4866 19.2258 17.5333 20.0391 16.84C20.8658 16.1466 21.9525 15.8 23.2991 15.8C24.1658 15.8 24.9058 15.96 25.5191 16.28C26.1325 16.5866 26.5991 17.0066 26.9191 17.54C27.2391 18.0733 27.3991 18.68 27.3991 19.36C27.3991 20.2133 27.1391 20.9533 26.6191 21.58C26.0991 22.1933 25.3058 22.56 24.2391 22.68V22.8C25.2658 22.96 26.0925 23.3533 26.7191 23.98C27.3458 24.6066 27.6591 25.4466 27.6591 26.5C27.6591 27.62 27.2858 28.54 26.5391 29.26C25.8058 29.9666 24.7258 30.32 23.2991 30.32C21.9525 30.32 20.8391 29.96 19.9591 29.24C19.0925 28.52 18.5725 27.5 18.3991 26.18H19.2791C19.4391 27.1666 19.8658 27.9733 20.5591 28.6C21.2525 29.2133 22.1658 29.52 23.2991 29.52C24.4458 29.52 25.3125 29.2333 25.8991 28.66C26.4991 28.0866 26.7991 27.3466 26.7991 26.44C26.7991 25.3466 26.3791 24.5266 25.5391 23.98C24.7125 23.4333 23.5258 23.16 21.9791 23.16H21.5991V22.38H21.9991C25.0125 22.3666 26.5191 21.38 26.5191 19.42C26.5191 18.5666 26.2325 17.88 25.6591 17.36C25.0991 16.84 24.3058 16.58 23.2791 16.58C22.2791 16.58 21.4325 16.8466 20.7391 17.38C20.0591 17.9 19.6525 18.6733 19.5191 19.7H18.6391Z" fill="#252C34"/>
<path d="M96.7999 33.2444V14.7555C96.7991 13.9449 96.5851 13.1488 96.1795 12.4471C95.7739 11.7453 95.1908 11.1625 94.4888 10.7573L78.3111 1.51281C77.6084 1.10713 76.8113 0.893555 75.9999 0.893555C75.1886 0.893555 74.3915 1.10713 73.6888 1.51281L57.5111 10.7573C56.8091 11.1625 56.226 11.7453 55.8204 12.4471C55.4148 13.1488 55.2008 13.9449 55.2 14.7555V33.2444C55.2008 34.0549 55.4148 34.851 55.8204 35.5528C56.226 36.2546 56.8091 36.8373 57.5111 37.2426L73.6888 46.487C74.3915 46.8927 75.1886 47.1063 75.9999 47.1063C76.8113 47.1063 77.6084 46.8927 78.3111 46.487L94.4888 37.2426C95.1908 36.8373 95.7739 36.2546 96.1795 35.5528C96.5851 34.851 96.7991 34.0549 96.7999 33.2444Z" stroke="black" stroke-width="0.5" stroke-linecap="round" stroke-linejoin="round"/>
<path d="M69.7722 26.6V25.9L77.3922 16.04H78.4122V25.82H80.6922V26.6H78.4122V30.2H77.5322V26.6H69.7722ZM77.5522 17.12L70.8322 25.82H77.5522V17.12Z" fill="#252C34"/>
<path d="M148.8 33.2444V14.7555C148.799 13.9449 148.585 13.1488 148.18 12.4471C147.774 11.7453 147.191 11.1625 146.489 10.7573L130.311 1.51281C129.608 1.10713 128.811 0.893555 128 0.893555C127.189 0.893555 126.392 1.10713 125.689 1.51281L109.511 10.7573C108.809 11.1625 108.226 11.7453 107.82 12.4471C107.415 13.1488 107.201 13.9449 107.2 14.7555V33.2444C107.201 34.0549 107.415 34.851 107.82 35.5528C108.226 36.2546 108.809 36.8373 109.511 37.2426L125.689 46.487C126.392 46.8927 127.189 47.1063 128 47.1063C128.811 47.1063 129.608 46.8927 130.311 46.487L146.489 37.2426C147.191 36.8373 147.774 36.2546 148.18 35.5528C148.585 34.851 148.799 34.0549 148.8 33.2444Z" stroke="black" stroke-width="0.5" stroke-linecap="round" stroke-linejoin="round"/>
<path d="M121.772 26.6V25.9L129.392 16.04H130.412V25.82H132.692V26.6H130.412V30.2H129.532V26.6H121.772ZM129.552 17.12L122.832 25.82H129.552V17.12Z" fill="#252C34"/>
<path d="M200.8 33.2444V14.7555C200.799 13.9449 200.585 13.1488 200.18 12.4471C199.774 11.7453 199.191 11.1625 198.489 10.7573L182.311 1.51281C181.608 1.10713 180.811 0.893555 180 0.893555C179.189 0.893555 178.392 1.10713 177.689 1.51281L161.511 10.7573C160.809 11.1625 160.226 11.7453 159.82 12.4471C159.415 13.1488 159.201 13.9449 159.2 14.7555V33.2444C159.201 34.0549 159.415 34.851 159.82 35.5528C160.226 36.2546 160.809 36.8373 161.511 37.2426L177.689 46.487C178.392 46.8927 179.189 47.1063 180 47.1063C180.811 47.1063 181.608 46.8927 182.311 46.487L198.489 37.2426C199.191 36.8373 199.774 36.2546 200.18 35.5528C200.585 34.851 200.799 34.0549 200.8 33.2444Z" stroke="black" stroke-width="0.5" stroke-linecap="round" stroke-linejoin="round"/>
<path d="M194.4 30.4V17.6C194.4 17.0389 194.251 16.4877 193.971 16.0019C193.69 15.516 193.286 15.1126 192.8 14.832L181.6 8.43201C181.114 8.15116 180.562 8.0033 180 8.0033C179.438 8.0033 178.887 8.15116 178.4 8.43201L167.2 14.832C166.714 15.1126 166.31 15.516 166.03 16.0019C165.749 16.4877 165.601 17.0389 165.6 17.6V30.4C165.601 30.9612 165.749 31.5123 166.03 31.9982C166.31 32.484 166.714 32.8874 167.2 33.168L178.4 39.568C178.887 39.8489 179.438 39.9967 180 39.9967C180.562 39.9967 181.114 39.8489 181.6 39.568L192.8 33.168C193.286 32.8874 193.69 32.484 193.971 31.9982C194.251 31.5123 194.4 30.9612 194.4 30.4Z" stroke="black" stroke-width="0.5" stroke-linecap="round" stroke-linejoin="round"/>
<path d="M183.805 16.78H176.125V22.52C176.485 22.0133 177.012 21.6 177.705 21.28C178.399 20.9466 179.152 20.78 179.965 20.78C181.045 20.78 181.925 21 182.605 21.44C183.299 21.8666 183.799 22.4266 184.105 23.12C184.412 23.8133 184.565 24.5666 184.565 25.38C184.565 26.2866 184.399 27.1133 184.065 27.86C183.732 28.5933 183.205 29.1866 182.485 29.64C181.779 30.08 180.885 30.3 179.805 30.3C178.499 30.3 177.419 29.9466 176.565 29.24C175.725 28.52 175.212 27.5533 175.025 26.34H175.905C176.105 27.3666 176.552 28.1533 177.245 28.7C177.939 29.2333 178.792 29.5 179.805 29.5C181.099 29.5 182.072 29.1266 182.725 28.38C183.379 27.62 183.705 26.6266 183.705 25.4C183.705 24.2 183.372 23.26 182.705 22.58C182.052 21.9 181.112 21.56 179.885 21.56C179.045 21.56 178.292 21.7466 177.625 22.12C176.972 22.4933 176.465 23.0066 176.105 23.66H175.265V15.98H183.805V16.78Z" fill="#252C34"/>
<path d="M252.8 33.2444V14.7555C252.799 13.9449 252.585 13.1488 252.18 12.4471C251.774 11.7453 251.191 11.1625 250.489 10.7573L234.311 1.51281C233.608 1.10713 232.811 0.893555 232 0.893555C231.189 0.893555 230.392 1.10713 229.689 1.51281L213.511 10.7573C212.809 11.1625 212.226 11.7453 211.82 12.4471C211.415 13.1488 211.201 13.9449 211.2 14.7555V33.2444C211.201 34.0549 211.415 34.851 211.82 35.5528C212.226 36.2546 212.809 36.8373 213.511 37.2426L229.689 46.487C230.392 46.8927 231.189 47.1063 232 47.1063C232.811 47.1063 233.608 46.8927 234.311 46.487L250.489 37.2426C251.191 36.8373 251.774 36.2546 252.18 35.5528C252.585 34.851 252.799 34.0549 252.8 33.2444Z" stroke="black" stroke-width="0.5" stroke-linecap="round" stroke-linejoin="round"/>
<path d="M235.805 16.78H228.125V22.52C228.485 22.0133 229.012 21.6 229.705 21.28C230.399 20.9466 231.152 20.78 231.965 20.78C233.045 20.78 233.925 21 234.605 21.44C235.299 21.8666 235.799 22.4266 236.105 23.12C236.412 23.8133 236.565 24.5666 236.565 25.38C236.565 26.2866 236.399 27.1133 236.065 27.86C235.732 28.5933 235.205 29.1866 234.485 29.64C233.779 30.08 232.885 30.3 231.805 30.3C230.499 30.3 229.419 29.9466 228.565 29.24C227.725 28.52 227.212 27.5533 227.025 26.34H227.905C228.105 27.3666 228.552 28.1533 229.245 28.7C229.939 29.2333 230.792 29.5 231.805 29.5C233.099 29.5 234.072 29.1266 234.725 28.38C235.379 27.62 235.705 26.6266 235.705 25.4C235.705 24.2 235.372 23.26 234.705 22.58C234.052 21.9 233.112 21.56 231.885 21.56C231.045 21.56 230.292 21.7466 229.625 22.12C228.972 22.4933 228.465 23.0066 228.105 23.66H227.265V15.98H235.805V16.78Z" fill="#252C34"/>
</svg>
