<svg width="151" height="150" viewBox="0 0 151 150" fill="none" xmlns="http://www.w3.org/2000/svg">
<path d="M120.885 95V55C120.883 53.2464 120.42 51.524 119.542 50.0058C118.665 48.4876 117.403 47.2268 115.885 46.35L80.8848 26.35C79.3646 25.4723 77.6401 25.0103 75.8848 25.0103C74.1294 25.0103 72.405 25.4723 70.8848 26.35L35.8848 46.35C34.3661 47.2268 33.1047 48.4876 32.2271 50.0058C31.3495 51.524 30.8866 53.2464 30.8848 55V95C30.8866 96.7536 31.3495 98.4759 32.2271 99.9942C33.1047 101.512 34.3661 102.773 35.8848 103.65L70.8848 123.65C72.405 124.528 74.1294 124.99 75.8848 124.99C77.6401 124.99 79.3646 124.528 80.8848 123.65L115.885 103.65C117.403 102.773 118.665 101.512 119.542 99.9942C120.42 98.4759 120.883 96.7536 120.885 95Z" stroke="black" stroke-width="2" stroke-linecap="round" stroke-linejoin="round"/>
</svg>
